<svg width="402" height="874" viewBox="0 0 402 874" fill="none" xmlns="http://www.w3.org/2000/svg">
<path d="M-5 33C36.343 88.3301 95.8965 89.4092 120.505 83.0325C240.991 43.0065 277.018 136.008 279.971 187.512C279.971 276.982 312.455 330.742 328.697 346.439C349.368 366.416 389.235 364.588 404 355.268" stroke="#F9B63C" stroke-opacity="0.5"/>
<path d="M-119 583.692C-52.538 611.849 9.72667 582.996 32.5513 565.051C140.552 469.415 217.535 533.489 242.527 577.481C280.617 656.468 337.217 687.672 360.755 693.401C390.713 700.692 431.309 679.126 442.665 663.508" stroke="#F9B63C" stroke-opacity="0.5"/>
<path d="M-92 849.836C-19.9127 853.494 28.6829 805.04 43.9698 780.356C112.627 653.484 206.915 687.274 245.476 720.029C308.343 781.164 372.211 791.068 396.287 788.377C426.928 784.953 457.667 750.774 462.979 732.21" stroke="#F9B63C" stroke-opacity="0.5"/>
<path d="M87 -3.10947C105.873 19.2908 166.619 6.22398 194.633 -3.10947C234.442 -16.3727 277.2 5.73228 300.791 41.1016C330.279 77.6498 330.771 149.665 327.33 181.104C322.907 276.895 368.614 290.158 404 299" stroke="#F9B63C" stroke-opacity="0.5"/>
<path d="M-76.8532 231.117C-45.5464 249.962 19.0428 209.365 47.4241 186.711C87.7554 154.519 146.516 163.159 188.78 195.476C238.354 226.762 269.514 312.178 278.897 350.975C314.482 466.684 372.891 463.596 417.506 459.509" stroke="#F9B63C" stroke-opacity="0.5"/>
<path d="M-90.3473 361.409C-59.0405 380.254 5.5487 339.657 33.93 317.003C74.2612 284.811 133.022 293.451 175.286 325.768C224.86 357.054 256.02 442.47 265.403 481.267C300.988 596.976 359.397 593.888 404.012 589.801" stroke="#F9B63C" stroke-opacity="0.5"/>
</svg>
