<svg width="273" height="95" viewBox="0 0 273 95" fill="none" xmlns="http://www.w3.org/2000/svg">
<path d="M249.008 8.30957C260.75 8.30957 266.577 17.5446 269.852 24.8223C273.126 32.0133 273.384 41.0224 272.68 47.9062C271.849 56.0285 268.215 62.6283 265.359 66.6895C261.785 71.7726 252.66 80.8097 249.008 83.1738C242.717 87.2459 226.841 95 224.579 95C222.317 94.9996 207.561 87.2458 201.185 83.1738C194.808 79.1019 188.147 73.4802 183.926 66.6895C181.401 62.6283 176.906 51.9049 176.906 47.9062C175.742 40.4199 177.36 27.7203 179.79 22.2227C182.22 16.725 190.493 8.30963 201.185 8.30957C214.542 8.69944 221.731 24.8216 224.579 24.8223C227.427 24.8223 235.323 8.30964 249.008 8.30957ZM64.0684 1.55957C68.1182 -0.173184 72.1252 -0.173114 76.0889 1.55957C79.9663 3.29231 82.5949 6.32446 83.9736 10.6562C85.3523 14.9016 84.7918 19.7104 82.293 25.082C81.0005 27.8545 79.2772 30.4972 77.123 33.0098C75.0551 35.4356 72.7713 37.9478 70.2725 40.5469C67.7736 43.146 65.2752 46.0492 62.7764 49.2549C60.2776 52.3739 57.9938 55.9691 55.9258 60.041V82.2637C55.9258 85.8159 54.6329 88.7623 52.0479 91.1016C49.4629 93.4406 46.2318 94.6103 42.3545 94.6104C38.5631 94.6104 35.3314 93.4408 32.6602 91.1016C30.0751 88.7623 28.7832 85.8159 28.7832 82.2637V60.041C26.8014 55.969 24.5604 52.3739 22.0615 49.2549C19.5627 46.0492 17.0643 43.1461 14.5654 40.5469C12.0667 37.9478 9.74005 35.4356 7.58594 33.0098C5.43177 30.4973 3.70853 27.8544 2.41602 25.082C-0.0828553 19.7104 -0.643336 14.9016 0.735352 10.6562C2.11407 6.32448 4.74267 3.29231 8.62012 1.55957C12.5836 -0.173013 16.59 -0.173014 20.6396 1.55957C24.7756 3.20569 27.7918 6.71447 29.6875 12.0859C30.6353 14.7718 31.325 17.8911 31.7559 21.4434C32.1867 24.9089 32.6607 28.2878 33.1777 31.5801C33.7809 34.7857 34.729 37.4717 36.0215 39.6377C37.4002 41.7168 39.5111 42.7568 42.3545 42.7568C45.1979 42.7568 47.3088 41.7168 48.6875 39.6377C50.0662 37.4717 51.0142 34.7857 51.5312 31.5801C52.1344 28.2878 52.6085 24.9089 52.9531 21.4434C53.384 17.8911 54.0736 14.7718 55.0215 12.0859C57.0033 6.71465 60.0187 3.20574 64.0684 1.55957ZM125.488 0C135.742 0 144.101 1.94986 150.563 5.84863C157.112 9.66073 161.938 15.1184 165.04 22.2227C168.228 29.2404 169.822 37.6012 169.822 47.3047C169.822 63.5929 166.332 75.5496 159.353 83.1738C152.373 90.798 141.688 94.6104 127.298 94.6104H121.611C117.389 94.6104 113.469 94.1769 109.85 93.3105C106.231 92.4442 103.042 90.8845 100.284 88.6318C97.5269 86.2926 95.3732 83.0433 93.8223 78.8848C92.2713 74.7262 91.4951 69.3549 91.4951 62.7705C91.4951 56.6191 92.314 51.2904 93.9512 46.7852C95.6745 42.28 97.6999 38.6848 100.026 35.999C102.353 33.3133 104.464 31.667 106.359 31.0605L105.713 28.5908H103.516C99.552 28.5908 96.4066 27.3348 94.0801 24.8223C91.8398 22.2232 90.677 18.7575 90.5908 14.4258C90.5047 10.0938 91.6246 6.6275 93.9512 4.02832C96.3638 1.34269 99.5521 4.48031e-05 103.516 0H125.488ZM121.094 25.7314C119.457 25.7315 118.207 26.1217 117.346 26.9014C116.57 27.5944 116.183 28.894 116.183 30.7998V61.0811C116.183 62.9003 116.57 64.1565 117.346 64.8496C118.207 65.5427 119.457 65.8896 121.094 65.8896H128.073C132.468 65.8896 135.871 64.9362 138.284 63.0303C140.697 61.1242 142.377 58.6977 143.325 55.752C144.359 52.7198 144.876 49.5144 144.876 46.1357C144.876 42.7568 144.359 39.5077 143.325 36.3887C142.377 33.2697 140.697 30.7134 138.284 28.7207C135.871 26.7282 132.468 25.7314 128.073 25.7314H121.094ZM224.579 45.0957C217.083 45.0955 211.439 30.974 207.647 32.3594C204.025 32.837 201.418 35.4022 199.81 37.3535C197.924 39.2491 196.704 43.7237 196.704 46.4961C196.704 50.9562 197.908 54.2177 199.2 56.6436C200.493 58.9829 203.748 62.8893 207.647 63.4453C211.439 64.8309 217.789 54.8479 224.579 54.8594C231.32 54.8709 237.677 64.8308 241.382 63.4453C245.007 62.945 248.705 58.9829 249.998 56.6436C251.711 54.0233 252.716 50.9562 252.716 46.4961C252.716 43.7239 251.894 41.033 249.998 37.8555C248.102 34.6777 243.676 32.3594 241.382 32.3594C237.687 31.667 232.076 45.0957 224.579 45.0957ZM205.206 49.5215C204.333 42.8867 214.234 41.2996 215.282 47.9062C211.913 44.7203 207.414 45.3851 205.206 49.5215ZM233.971 47.9062C235.16 41.3214 245.069 42.856 244.056 49.4678C241.818 45.3986 237.332 44.6476 233.971 47.9062Z" fill="#F9B63C"/>
<path d="M249.008 8.30957C260.75 8.30957 266.577 17.5446 269.852 24.8223C273.126 32.0133 273.384 41.0224 272.68 47.9062C271.849 56.0285 268.215 62.6283 265.359 66.6895C261.785 71.7726 252.66 80.8097 249.008 83.1738C242.717 87.2459 226.841 95 224.579 95C222.317 94.9996 207.561 87.2458 201.185 83.1738C194.808 79.1019 188.147 73.4802 183.926 66.6895C181.401 62.6283 176.906 51.9049 176.906 47.9062C175.742 40.4199 177.36 27.7203 179.79 22.2227C182.22 16.725 190.493 8.30963 201.185 8.30957C214.542 8.69944 221.731 24.8216 224.579 24.8223C227.427 24.8223 235.323 8.30964 249.008 8.30957ZM64.0684 1.55957C68.1182 -0.173184 72.1252 -0.173114 76.0889 1.55957C79.9663 3.29231 82.5949 6.32446 83.9736 10.6562C85.3523 14.9016 84.7918 19.7104 82.293 25.082C81.0005 27.8545 79.2772 30.4972 77.123 33.0098C75.0551 35.4356 72.7713 37.9478 70.2725 40.5469C67.7736 43.146 65.2752 46.0492 62.7764 49.2549C60.2776 52.3739 57.9938 55.9691 55.9258 60.041V82.2637C55.9258 85.8159 54.6329 88.7623 52.0479 91.1016C49.4629 93.4406 46.2318 94.6103 42.3545 94.6104C38.5631 94.6104 35.3314 93.4408 32.6602 91.1016C30.0751 88.7623 28.7832 85.8159 28.7832 82.2637V60.041C26.8014 55.969 24.5604 52.3739 22.0615 49.2549C19.5627 46.0492 17.0643 43.1461 14.5654 40.5469C12.0667 37.9478 9.74005 35.4356 7.58594 33.0098C5.43177 30.4973 3.70853 27.8544 2.41602 25.082C-0.0828553 19.7104 -0.643336 14.9016 0.735352 10.6562C2.11407 6.32448 4.74267 3.29231 8.62012 1.55957C12.5836 -0.173013 16.59 -0.173014 20.6396 1.55957C24.7756 3.20569 27.7918 6.71447 29.6875 12.0859C30.6353 14.7718 31.325 17.8911 31.7559 21.4434C32.1867 24.9089 32.6607 28.2878 33.1777 31.5801C33.7809 34.7857 34.729 37.4717 36.0215 39.6377C37.4002 41.7168 39.5111 42.7568 42.3545 42.7568C45.1979 42.7568 47.3088 41.7168 48.6875 39.6377C50.0662 37.4717 51.0142 34.7857 51.5312 31.5801C52.1344 28.2878 52.6085 24.9089 52.9531 21.4434C53.384 17.8911 54.0736 14.7718 55.0215 12.0859C57.0033 6.71465 60.0187 3.20574 64.0684 1.55957ZM125.488 0C135.742 0 144.101 1.94986 150.563 5.84863C157.112 9.66073 161.938 15.1184 165.04 22.2227C168.228 29.2404 169.822 37.6012 169.822 47.3047C169.822 63.5929 166.332 75.5496 159.353 83.1738C152.373 90.798 141.688 94.6104 127.298 94.6104H121.611C117.389 94.6104 113.469 94.1769 109.85 93.3105C106.231 92.4442 103.042 90.8845 100.284 88.6318C97.5269 86.2926 95.3732 83.0433 93.8223 78.8848C92.2713 74.7262 91.4951 69.3549 91.4951 62.7705C91.4951 56.6191 92.314 51.2904 93.9512 46.7852C95.6745 42.28 97.6999 38.6848 100.026 35.999C102.353 33.3133 104.464 31.667 106.359 31.0605L105.713 28.5908H103.516C99.552 28.5908 96.4066 27.3348 94.0801 24.8223C91.8398 22.2232 90.677 18.7575 90.5908 14.4258C90.5047 10.0938 91.6246 6.6275 93.9512 4.02832C96.3638 1.34269 99.5521 4.48031e-05 103.516 0H125.488ZM121.094 25.7314C119.457 25.7315 118.207 26.1217 117.346 26.9014C116.57 27.5944 116.183 28.894 116.183 30.7998V61.0811C116.183 62.9003 116.57 64.1565 117.346 64.8496C118.207 65.5427 119.457 65.8896 121.094 65.8896H128.073C132.468 65.8896 135.871 64.9362 138.284 63.0303C140.697 61.1242 142.377 58.6977 143.325 55.752C144.359 52.7198 144.876 49.5144 144.876 46.1357C144.876 42.7568 144.359 39.5077 143.325 36.3887C142.377 33.2697 140.697 30.7134 138.284 28.7207C135.871 26.7282 132.468 25.7314 128.073 25.7314H121.094ZM224.579 45.0957C217.083 45.0955 211.439 30.974 207.647 32.3594C204.025 32.837 201.418 35.4022 199.81 37.3535C197.924 39.2491 196.704 43.7237 196.704 46.4961C196.704 50.9562 197.908 54.2177 199.2 56.6436C200.493 58.9829 203.748 62.8893 207.647 63.4453C211.439 64.8309 217.789 54.8479 224.579 54.8594C231.32 54.8709 237.677 64.8308 241.382 63.4453C245.007 62.945 248.705 58.9829 249.998 56.6436C251.711 54.0233 252.716 50.9562 252.716 46.4961C252.716 43.7239 251.894 41.033 249.998 37.8555C248.102 34.6777 243.676 32.3594 241.382 32.3594C237.687 31.667 232.076 45.0957 224.579 45.0957ZM205.206 49.5215C204.333 42.8867 214.234 41.2996 215.282 47.9062C211.913 44.7203 207.414 45.3851 205.206 49.5215ZM233.971 47.9062C235.16 41.3214 245.069 42.856 244.056 49.4678C241.818 45.3986 237.332 44.6476 233.971 47.9062Z" stroke="black"/>
</svg>
